<svg xmlns="http://www.w3.org/2000/svg" version="1.1" xmlns:xlink="http://www.w3.org/1999/xlink" xmlns:svgjs="http://svgjs.dev/svgjs" width="2000" height="752" viewBox="0 0 2000 752"><g transform="matrix(1,0,0,1,-1.2121212121212466,-1.2565613596088383)"><svg viewBox="0 0 396 149" data-background-color="#3aafa9" preserveAspectRatio="xMidYMid meet" height="752" width="2000" xmlns="http://www.w3.org/2000/svg" xmlns:xlink="http://www.w3.org/1999/xlink"><g id="tight-bounds" transform="matrix(1,0,0,1,0.2400000000000091,0.24897292896504553)"><svg viewBox="0 0 395.52 148.5020541420699" height="148.5020541420699" width="395.52"><g><svg viewBox="0 0 395.52 148.5020541420699" height="148.5020541420699" width="395.52"><g transform="matrix(1,0,0,1,0,99.97698217496915)"><svg viewBox="0 0 395.52 48.52507196710075" height="48.52507196710075" width="395.52"><g id="textblocktransform"><svg viewBox="0 0 395.52 48.52507196710075" height="48.52507196710075" width="395.52" id="textblock"><g><svg viewBox="0 0 395.52 48.52507196710075" height="48.52507196710075" width="395.52"><g transform="matrix(1,0,0,1,0,0)"><svg width="395.52" viewBox="2.4 -35.4 291.78000000000003 35.8" height="48.52507196710075" data-palette-color="#17242a"><path d="M29.5-7.2L29.5-17.7 34.3-17.7 34.3 0 29.9 0 29.9-2.35Q26.05 0.4 20.15 0.4L20.15 0.4Q15.4 0.4 11.33-1.7 7.25-3.8 4.83-7.83 2.4-11.85 2.4-17.35L2.4-17.35Q2.4-22.55 4.83-26.65 7.25-30.75 11.53-33.08 15.8-35.4 21.15-35.4L21.15-35.4Q25.35-35.4 28.78-34.02 32.2-32.65 34.6-30L34.6-30 31.5-26.9Q27.3-30.95 21.35-30.95L21.35-30.95Q17.35-30.95 14.18-29.2 11-27.45 9.2-24.35 7.4-21.25 7.4-17.35L7.4-17.35Q7.4-13.2 9.22-10.15 11.05-7.1 14.05-5.53 17.05-3.95 20.55-3.95L20.55-3.95Q23-3.95 25.33-4.78 27.65-5.6 29.5-7.2L29.5-7.2ZM47.75-22.05Q49-24.35 51.45-25.55 53.9-26.75 57.4-26.75L57.4-26.75 57.4-22.1Q57-22.15 56.3-22.15L56.3-22.15Q52.4-22.15 50.17-19.83 47.95-17.5 47.95-13.2L47.95-13.2 47.95 0 43.15 0 43.15-26.5 47.75-26.5 47.75-22.05ZM83.55-26.5L88.34-26.5 88.34 0 83.8 0 83.8-4Q82.34-1.95 79.97-0.83 77.59 0.3 74.8 0.3L74.8 0.3Q69.5 0.3 66.45-2.63 63.4-5.55 63.4-11.25L63.4-11.25 63.4-26.5 68.2-26.5 68.2-11.8Q68.2-7.95 70.05-5.98 71.9-4 75.34-4L75.34-4Q79.15-4 81.34-6.3 83.55-8.6 83.55-12.8L83.55-12.8 83.55-26.5ZM130.64-26.75Q135.64-26.75 138.57-23.85 141.49-20.95 141.49-15.25L141.49-15.25 141.49 0 136.69 0 136.69-14.7Q136.69-18.55 134.92-20.5 133.14-22.45 129.84-22.45L129.84-22.45Q126.19-22.45 124.04-20.18 121.89-17.9 121.89-13.65L121.89-13.65 121.89 0 117.09 0 117.09-14.7Q117.09-18.55 115.32-20.5 113.54-22.45 110.24-22.45L110.24-22.45Q106.59-22.45 104.44-20.18 102.29-17.9 102.29-13.65L102.29-13.65 102.29 0 97.49 0 97.49-26.5 102.09-26.5 102.09-22.55Q103.54-24.6 105.89-25.68 108.24-26.75 111.24-26.75L111.24-26.75Q114.34-26.75 116.74-25.5 119.14-24.25 120.44-21.85L120.44-21.85Q121.94-24.15 124.62-25.45 127.29-26.75 130.64-26.75L130.64-26.75ZM179.89 0L174.44 0 166.89-10.75Q165.49-10.65 164.69-10.65L164.69-10.65 156.04-10.65 156.04 0 151.04 0 151.04-35 164.69-35Q171.49-35 175.39-31.75 179.29-28.5 179.29-22.8L179.29-22.8Q179.29-18.75 177.29-15.9 175.29-13.05 171.59-11.75L171.59-11.75 179.89 0ZM164.54-14.9Q169.29-14.9 171.79-16.95 174.29-19 174.29-22.8L174.29-22.8Q174.29-26.6 171.79-28.63 169.29-30.65 164.54-30.65L164.54-30.65 156.04-30.65 156.04-14.9 164.54-14.9ZM198.04 0.3Q194.09 0.3 190.94-1.45 187.79-3.2 186.01-6.28 184.24-9.35 184.24-13.25L184.24-13.25Q184.24-17.15 186.01-20.23 187.79-23.3 190.94-25.03 194.09-26.75 198.04-26.75L198.04-26.75Q201.99-26.75 205.11-25.03 208.24-23.3 210.01-20.23 211.79-17.15 211.79-13.25L211.79-13.25Q211.79-9.35 210.01-6.28 208.24-3.2 205.11-1.45 201.99 0.3 198.04 0.3L198.04 0.3ZM198.04-3.9Q200.59-3.9 202.61-5.08 204.64-6.25 205.79-8.38 206.94-10.5 206.94-13.25L206.94-13.25Q206.94-16 205.79-18.13 204.64-20.25 202.61-21.4 200.59-22.55 198.04-22.55L198.04-22.55Q195.49-22.55 193.46-21.4 191.44-20.25 190.26-18.13 189.09-16 189.09-13.25L189.09-13.25Q189.09-10.5 190.26-8.38 191.44-6.25 193.46-5.08 195.49-3.9 198.04-3.9L198.04-3.9ZM229.79 0.3Q225.84 0.3 222.69-1.45 219.54-3.2 217.76-6.28 215.99-9.35 215.99-13.25L215.99-13.25Q215.99-17.15 217.76-20.23 219.54-23.3 222.69-25.03 225.84-26.75 229.79-26.75L229.79-26.75Q233.74-26.75 236.86-25.03 239.99-23.3 241.76-20.23 243.54-17.15 243.54-13.25L243.54-13.25Q243.54-9.35 241.76-6.28 239.99-3.2 236.86-1.45 233.74 0.3 229.79 0.3L229.79 0.3ZM229.79-3.9Q232.34-3.9 234.36-5.08 236.39-6.25 237.54-8.38 238.69-10.5 238.69-13.25L238.69-13.25Q238.69-16 237.54-18.13 236.39-20.25 234.36-21.4 232.34-22.55 229.79-22.55L229.79-22.55Q227.24-22.55 225.21-21.4 223.19-20.25 222.01-18.13 220.84-16 220.84-13.25L220.84-13.25Q220.84-10.5 222.01-8.38 223.19-6.25 225.21-5.08 227.24-3.9 229.79-3.9L229.79-3.9ZM283.33-26.75Q288.33-26.75 291.26-23.85 294.18-20.95 294.18-15.25L294.18-15.25 294.18 0 289.38 0 289.38-14.7Q289.38-18.55 287.61-20.5 285.83-22.45 282.53-22.45L282.53-22.45Q278.88-22.45 276.73-20.18 274.58-17.9 274.58-13.65L274.58-13.65 274.58 0 269.78 0 269.78-14.7Q269.78-18.55 268.01-20.5 266.23-22.45 262.93-22.45L262.93-22.45Q259.28-22.45 257.13-20.18 254.98-17.9 254.98-13.65L254.98-13.65 254.98 0 250.18 0 250.18-26.5 254.78-26.5 254.78-22.55Q256.23-24.6 258.58-25.68 260.93-26.75 263.93-26.75L263.93-26.75Q267.03-26.75 269.43-25.5 271.83-24.25 273.13-21.85L273.13-21.85Q274.63-24.15 277.31-25.45 279.98-26.75 283.33-26.75L283.33-26.75Z" opacity="1" transform="matrix(1,0,0,1,0,0)" fill="#17242a" class="wordmark-text-0" data-fill-palette-color="primary" id="text-0"></path></svg></g></svg></g></svg></g></svg></g><g transform="matrix(1,0,0,1,153.49931135736804,0)"><svg viewBox="0 0 88.52137728526388 88.52137728526388" height="88.52137728526388" width="88.52137728526388"><g><svg xmlns="http://www.w3.org/2000/svg" xmlns:xlink="http://www.w3.org/1999/xlink" version="1.1" x="0" y="0" viewBox="23.833 23.583 52.001000000000005 52.001000000000005" enable-background="new 0 0 100 100" xml:space="preserve" height="88.52137728526388" width="88.52137728526388" class="icon-icon-0" data-fill-palette-color="accent" id="icon-0"><path d="M49.833 23.583c-14.337 0-26 11.664-26 26s11.664 26.001 26 26.001S75.834 63.92 75.834 49.583 64.17 23.583 49.833 23.583zM49.833 67.584c-9.925 0-18-8.075-18-18.001 0-9.925 8.075-18 18-18 9.925 0 18.001 8.075 18.001 18C67.834 59.509 59.758 67.584 49.833 67.584z" fill="#ffffff" data-fill-palette-color="accent"></path></svg></g></svg></g><g></g></svg></g><defs></defs></svg><rect width="395.52" height="148.5020541420699" fill="none" stroke="none" visibility="hidden"></rect></g></svg></g></svg>